<?xml version="1.0" standalone="no"?>
<!DOCTYPE svg PUBLIC "-//W3C//DTD SVG 20010904//EN"
 "http://www.w3.org/TR/2001/REC-SVG-20010904/DTD/svg10.dtd">
<svg version="1.0" xmlns="http://www.w3.org/2000/svg"
 width="200.000000pt" height="200.000000pt" viewBox="0 0 200.000000 200.000000"
 preserveAspectRatio="xMidYMid meet">

<g transform="translate(0.000000,200.000000) scale(0.100000,-0.100000)" stroke="none">
<path d="M148 1595 c-53 -29 -61 -156 -12 -194 14 -11 50 -22 84 -26 50 -6 60
-10 60 -26 0 -17 -8 -19 -78 -19 -83 0 -102 -9 -102 -46 0 -51 6 -54 112 -54
148 0 188 27 188 126 0 77 -25 100 -118 112 -48 6 -57 10 -57 27 0 18 8 21 75
25 l75 5 0 40 0 40 -100 2 c-73 2 -107 -1 -127 -12z"/>
<path d="M496 1518 c-33 -84 -36 -103 -36 -190 l0 -98 50 0 50 0 0 50 0 50 54
0 55 0 3 -47 3 -48 50 0 50 0 0 105 c-1 95 -4 113 -34 188 l-33 82 -88 0 -88
0 -36 -92z m142 -15 c6 -10 13 -33 17 -50 l7 -33 -46 0 c-25 0 -46 1 -46 3 0
2 7 24 16 50 16 49 37 60 52 30z"/>
<path d="M862 1423 l3 -188 110 -3 c173 -5 205 13 205 116 0 53 -21 92 -51 92
-23 0 -25 15 -4 24 11 4 15 20 15 55 0 42 -4 53 -26 70 -24 18 -41 21 -141 21
l-113 0 2 -187z m183 88 c10 -33 -5 -51 -41 -51 -32 0 -34 2 -34 35 0 33 2 35
34 35 25 0 36 -5 41 -19z m23 -155 c4 -35 -10 -46 -60 -46 -38 0 -38 0 -38 41
l0 40 48 -3 c44 -3 47 -5 50 -32z"/>
<path d="M1240 1565 c0 -45 0 -45 35 -45 l35 0 0 -94 0 -95 -32 -3 c-32 -3
-33 -5 -33 -48 l0 -45 125 0 125 0 0 45 c0 43 -1 45 -32 48 l-33 3 0 95 0 94
36 0 35 0 -3 43 -3 42 -127 3 -128 3 0 -46z"/>
<path d="M1574 1597 c-2 -7 -3 -91 -2 -187 l3 -175 53 -3 52 -3 0 100 c0 56 3
101 8 100 4 0 28 -26 55 -59 39 -48 47 -65 47 -99 l0 -41 50 0 c63 0 62 -4 58
210 l-3 165 -52 3 -53 3 0 -65 c0 -37 -3 -66 -7 -66 -5 0 -34 29 -66 65 -53
59 -62 65 -98 65 -23 0 -42 -5 -45 -13z"/>
<path d="M947 1014 c-43 -75 -76 -138 -74 -141 3 -2 31 1 62 7 31 6 59 9 63 6
3 -4 -2 -37 -12 -74 -23 -82 -30 -119 -24 -112 14 13 168 272 168 281 0 11
-20 9 -102 -7 -33 -7 -33 -5 -12 87 9 38 14 73 12 79 -2 5 -38 -52 -81 -126z"/>
<path d="M356 957 c-11 -52 -8 -57 27 -56 23 1 26 3 10 6 -13 2 -23 10 -23 18
0 24 12 45 25 45 27 0 22 15 -5 16 -23 1 -29 -4 -34 -29z"/>
<path d="M453 983 c-20 -8 -15 -41 7 -48 29 -9 25 -28 -6 -22 -16 3 -22 1 -16
-5 5 -5 20 -8 33 -6 31 4 38 37 10 45 -12 3 -21 12 -21 19 0 16 16 19 25 4 4
-6 11 -8 16 -4 25 15 -16 30 -48 17z"/>
<path d="M525 979 c-4 -5 1 -9 10 -9 13 0 15 -7 9 -35 -4 -23 -2 -35 5 -35 6
0 11 11 11 25 0 13 9 32 19 42 19 18 18 18 -15 20 -18 1 -36 -3 -39 -8z"/>
<path d="M1353 983 c-22 -8 -14 -21 8 -16 29 8 22 -28 -9 -42 -12 -5 -22 -13
-22 -17 0 -12 68 -10 75 2 3 6 -4 10 -16 10 -21 0 -21 1 -4 20 28 31 8 60 -32
43z"/>
<path d="M1449 969 c-23 -23 -22 -47 4 -63 36 -23 75 35 47 70 -17 19 -26 18
-51 -7z m39 -26 c-4 -36 -38 -45 -38 -10 0 27 7 37 27 37 10 0 13 -9 11 -27z"/>
<path d="M1551 976 c-10 -12 -8 -13 9 -9 18 5 21 2 18 -13 -2 -10 -13 -23 -26
-29 -12 -5 -22 -13 -22 -17 0 -12 68 -10 75 2 3 6 -4 10 -16 10 -21 0 -21 1
-4 20 19 21 14 50 -8 50 -8 0 -20 -6 -26 -14z"/>
<path d="M1662 983 c-22 -9 -34 -41 -22 -63 20 -37 70 -19 70 25 0 12 -5 26
-12 33 -13 13 -16 13 -36 5z m26 -40 c-4 -36 -38 -45 -38 -10 0 27 7 37 27 37
10 0 13 -9 11 -27z"/>
<path d="M610 910 c0 -5 5 -10 10 -10 6 0 10 5 10 10 0 6 -4 10 -10 10 -5 0
-10 -4 -10 -10z"/>
<path d="M1508 770 c-61 -38 -73 -61 -54 -97 8 -16 23 -36 35 -47 19 -17 23
-18 61 -2 50 20 60 20 60 2 0 -8 -18 -25 -40 -37 -41 -23 -46 -33 -31 -58 8
-13 15 -12 46 5 20 10 53 33 73 51 l37 31 -24 45 c-28 55 -41 61 -88 42 -72
-30 -89 -5 -23 33 36 20 39 25 28 42 -17 26 -24 25 -80 -10z"/>
<path d="M387 744 c-26 -20 -61 -59 -78 -87 l-31 -50 24 -19 c30 -23 33 -23
46 7 11 25 13 25 42 10 32 -17 38 -33 18 -54 -11 -10 -8 -16 11 -32 13 -10 26
-19 30 -19 12 0 61 92 71 133 18 78 14 94 -30 122 -22 14 -43 25 -48 25 -5 0
-30 -16 -55 -36z m75 -70 c-5 -41 -13 -46 -42 -23 l-25 19 24 20 c31 27 47 21
43 -16z"/>
<path d="M1323 680 c-13 -5 -24 -21 -28 -42 -11 -51 -15 -52 -49 -19 -27 26
-37 30 -64 25 -39 -8 -40 -16 -3 -144 25 -89 28 -95 51 -92 38 6 41 14 25 68
-21 71 -20 82 10 54 20 -19 27 -21 40 -10 8 7 15 21 15 31 0 39 18 17 32 -38
14 -60 34 -75 67 -54 12 8 10 27 -14 120 -30 116 -33 120 -82 101z"/>
<path d="M621 643 c-5 -21 -19 -73 -29 -115 l-20 -78 37 -10 c20 -6 61 -13 92
-16 52 -6 58 -5 73 17 18 29 48 152 41 171 -8 21 -37 35 -103 52 -80 21 -80
21 -91 -21z m103 -39 c19 -7 20 -34 5 -86 -8 -32 -14 -38 -38 -38 -15 0 -30 2
-33 5 -3 3 1 33 9 65 15 59 24 67 57 54z"/>
<path d="M919 603 c-32 -81 -39 -110 -39 -159 l0 -54 35 0 c32 0 35 2 35 30 0
28 3 30 35 30 32 0 35 -2 35 -30 0 -28 3 -30 35 -30 l35 0 -1 58 c0 34 -9 81
-23 117 l-23 60 -57 3 c-53 3 -57 2 -67 -25z m85 -49 c14 -37 7 -54 -24 -54
-28 0 -30 2 -24 28 4 15 9 30 11 35 7 13 31 8 37 -9z"/>
</g>
</svg>
